<?xml version="1.0" standalone="no"?>
<!DOCTYPE svg PUBLIC "-//W3C//DTD SVG 20010904//EN"
 "http://www.w3.org/TR/2001/REC-SVG-20010904/DTD/svg10.dtd">
<svg version="1.0" xmlns="http://www.w3.org/2000/svg"
 width="250.000000pt" height="312.000000pt" viewBox="0 0 250.000000 312.000000"
 preserveAspectRatio="xMidYMid meet">

<g transform="translate(0.000000,312.000000) scale(0.100000,-0.100000)"
fill="#000000" stroke="none">
<path d="M970 1755 c7 -9 15 -13 17 -11 7 7 -7 26 -19 26 -6 0 -6 -6 2 -15z"/>
<path d="M907 1736 c-11 -27 16 -63 53 -71 16 -4 39 -18 50 -32 18 -23 20 -24
20 -6 0 26 -16 39 -65 55 -32 11 -41 19 -45 43 -5 25 -7 27 -13 11z"/>
<path d="M789 1687 c43 -15 74 -57 74 -97 0 -25 2 -28 10 -15 14 26 -1 82 -30
105 -14 11 -40 20 -57 19 l-31 0 34 -12z"/>
<path d="M691 1608 c-1 -26 7 -45 25 -67 22 -26 32 -31 67 -30 23 1 33 3 22 6
-11 2 -30 6 -41 8 -25 5 -54 46 -65 90 l-7 30 -1 -37z"/>
<path d="M586 1602 c-3 -5 19 -41 49 -80 30 -40 56 -69 58 -64 3 4 -19 40 -48
80 -30 40 -56 69 -59 64z"/>
<path d="M942 1584 c10 -10 20 -15 24 -12 3 4 -5 12 -18 18 -22 12 -22 12 -6
-6z"/>
<path d="M450 1515 c0 -10 24 -30 40 -33 7 -2 40 -19 72 -37 34 -20 58 -29 58
-22 0 7 -33 30 -73 52 -75 42 -97 51 -97 40z"/>
<path d="M334 1415 c-17 -13 -16 -13 12 -3 53 19 111 -16 127 -77 3 -15 5 -12
6 8 2 64 -93 112 -145 72z"/>
<path d="M540 1370 c0 -5 5 -10 11 -10 5 0 7 5 4 10 -3 6 -8 10 -11 10 -2 0
-4 -4 -4 -10z"/>
<path d="M294 1320 c11 -66 91 -103 142 -65 17 13 16 13 -12 3 -26 -10 -37 -8
-65 8 -19 11 -42 35 -52 54 l-19 35 6 -35z"/>
<path d="M218 1273 c7 -3 16 -2 19 1 4 3 -2 6 -13 5 -11 0 -14 -3 -6 -6z"/>
<path d="M2264 1185 c0 -55 1 -76 3 -47 2 29 2 74 0 100 -2 26 -3 2 -3 -53z"/>
<path d="M180 1211 c0 -24 31 -34 69 -22 51 15 67 14 85 -5 9 -8 16 -11 16 -5
0 13 -29 41 -42 41 -6 0 -28 -5 -50 -12 -31 -9 -44 -9 -59 0 -10 7 -19 8 -19
3z"/>
<path d="M2084 1112 c13 -27 33 -55 43 -62 17 -14 17 -14 2 5 -9 11 -26 39
-38 63 -12 23 -24 42 -26 42 -3 0 6 -22 19 -48z"/>
<path d="M278 1118 c5 -5 16 -8 23 -6 8 3 3 7 -10 11 -17 4 -21 3 -13 -5z"/>
<path d="M1960 1123 c0 -16 51 -145 56 -140 2 2 -10 37 -26 78 -16 40 -29 68
-30 62z"/>
</g>
</svg>
